<svg xmlns="http://www.w3.org/2000/svg" xmlns:xlink="http://www.w3.org/1999/xlink" width="500" zoomAndPan="magnify" viewBox="0 0 375 374.999991" height="500" preserveAspectRatio="xMidYMid meet" version="1.0"><defs><clipPath id="6af2a9680d"><path d="M 28.835938 126 L 121 126 L 121 235 L 28.835938 235 Z M 28.835938 126 " clip-rule="nonzero"/></clipPath><clipPath id="79e002000d"><path d="M 201 194 L 346.085938 194 L 346.085938 238 L 201 238 Z M 201 194 " clip-rule="nonzero"/></clipPath></defs><path fill="#6141ac" d="M 118.890625 139.070312 C 118.339844 140.578125 117.632812 141.972656 116.796875 143.261719 C 113.621094 123.191406 93.035156 112.300781 80.179688 139.410156 C 78.4375 134.898438 78.265625 129.761719 80.054688 124.863281 C 83.972656 114.128906 95.84375 108.609375 106.566406 112.53125 C 117.292969 116.453125 122.808594 128.335938 118.890625 139.070312 Z M 118.890625 139.070312 " fill-opacity="1" fill-rule="nonzero"/><g clip-path="url(#6af2a9680d)"><path fill="#6141ac" d="M 28.835938 222.429688 C 28.835938 222.429688 43.980469 238.46875 47 234.007812 C 61.269531 212.914062 82.746094 199.488281 99.984375 184.617188 C 116.589844 170.296875 123.898438 147.9375 119.402344 126.464844 C 119.402344 126.464844 120.691406 151.144531 65.144531 190.441406 C 65.144531 190.4375 36.441406 207.730469 28.835938 222.429688 Z M 28.835938 222.429688 " fill-opacity="1" fill-rule="nonzero"/></g><path fill="#b3b3ff" d="M 147.636719 214.835938 C 147.636719 214.835938 143.074219 235.964844 138.933594 232.523438 C 116.578125 213.933594 98.527344 197.695312 85.800781 178.988281 C 74.570312 162.484375 72.90625 141.253906 80.871094 122.949219 C 80.871094 122.949219 74.605469 146.851562 121.035156 196.609375 C 121.039062 196.605469 134.515625 210.289062 147.636719 214.835938 Z M 147.636719 214.835938 " fill-opacity="1" fill-rule="nonzero"/><path fill="#6141ac" d="M 202.160156 214.710938 C 202.160156 214.710938 194.464844 195.730469 177.105469 202.394531 C 159.742188 209.058594 139.4375 225.734375 113.191406 210.050781 C 113.191406 210.050781 136.824219 242.769531 157.371094 234.148438 C 174.515625 226.957031 187.902344 206.34375 202.160156 214.710938 Z M 202.160156 214.710938 " fill-opacity="1" fill-rule="nonzero"/><g clip-path="url(#79e002000d)"><path fill="#b3b3ff" d="M 346.085938 222.832031 L 333.355469 227.441406 C 333.355469 227.441406 297.917969 185.492188 249.722656 226.730469 C 249.722656 226.730469 219.101562 257.601562 201.109375 213.667969 C 201.109375 213.667969 225 221.167969 252.246094 206.734375 C 319.980469 170.851562 346.085938 222.832031 346.085938 222.832031 Z M 346.085938 222.832031 " fill-opacity="1" fill-rule="nonzero"/></g></svg>