<svg xmlns="http://www.w3.org/2000/svg" xmlns:xlink="http://www.w3.org/1999/xlink" width="500" zoomAndPan="magnify" viewBox="0 0 375 374.999991" height="500" preserveAspectRatio="xMidYMid meet" version="1.0"><defs><g/><clipPath id="deb03c0cee"><path d="M 28.835938 126 L 121 126 L 121 235 L 28.835938 235 Z M 28.835938 126 " clip-rule="nonzero"/></clipPath><clipPath id="22bb5dca7d"><path d="M 201 194 L 346.085938 194 L 346.085938 238 L 201 238 Z M 201 194 " clip-rule="nonzero"/></clipPath></defs><rect x="-37.5" width="450" fill="#ffffff" y="-37.499999" height="449.999989" fill-opacity="1"/><rect x="-37.5" width="450" fill="#ffffff" y="-37.499999" height="449.999989" fill-opacity="1"/><rect x="-37.5" width="450" fill="#ffffff" y="-37.499999" height="449.999989" fill-opacity="1"/><path fill="#6141ac" d="M 118.890625 139.070312 C 118.339844 140.578125 117.632812 141.972656 116.796875 143.261719 C 113.621094 123.191406 93.035156 112.300781 80.179688 139.410156 C 78.4375 134.898438 78.265625 129.761719 80.054688 124.863281 C 83.972656 114.128906 95.84375 108.609375 106.566406 112.53125 C 117.292969 116.453125 122.808594 128.335938 118.890625 139.070312 Z M 118.890625 139.070312 " fill-opacity="1" fill-rule="nonzero"/><g clip-path="url(#deb03c0cee)"><path fill="#6141ac" d="M 28.835938 222.429688 C 28.835938 222.429688 43.980469 238.46875 47 234.007812 C 61.269531 212.914062 82.746094 199.488281 99.984375 184.617188 C 116.589844 170.296875 123.898438 147.9375 119.402344 126.464844 C 119.402344 126.464844 120.691406 151.144531 65.144531 190.441406 C 65.144531 190.4375 36.441406 207.730469 28.835938 222.429688 Z M 28.835938 222.429688 " fill-opacity="1" fill-rule="nonzero"/></g><path fill="#b3b3ff" d="M 147.636719 214.835938 C 147.636719 214.835938 143.074219 235.964844 138.933594 232.523438 C 116.578125 213.933594 98.527344 197.695312 85.800781 178.988281 C 74.570312 162.484375 72.90625 141.253906 80.871094 122.949219 C 80.871094 122.949219 74.605469 146.851562 121.035156 196.609375 C 121.039062 196.605469 134.515625 210.289062 147.636719 214.835938 Z M 147.636719 214.835938 " fill-opacity="1" fill-rule="nonzero"/><path fill="#6141ac" d="M 202.160156 214.710938 C 202.160156 214.710938 194.464844 195.730469 177.105469 202.394531 C 159.742188 209.058594 139.4375 225.734375 113.191406 210.050781 C 113.191406 210.050781 136.824219 242.769531 157.371094 234.148438 C 174.515625 226.957031 187.902344 206.34375 202.160156 214.710938 Z M 202.160156 214.710938 " fill-opacity="1" fill-rule="nonzero"/><g clip-path="url(#22bb5dca7d)"><path fill="#b3b3ff" d="M 346.085938 222.832031 L 333.355469 227.441406 C 333.355469 227.441406 297.917969 185.492188 249.722656 226.730469 C 249.722656 226.730469 219.101562 257.601562 201.109375 213.667969 C 201.109375 213.667969 225 221.167969 252.246094 206.734375 C 319.980469 170.851562 346.085938 222.832031 346.085938 222.832031 Z M 346.085938 222.832031 " fill-opacity="1" fill-rule="nonzero"/></g><g fill="#8c52ff" fill-opacity="1"><g transform="translate(129.282755, 195.787541)"><g><path d="M 33.507812 -13.1875 C 33.253906 -13.25 32.996094 -13.121094 32.933594 -12.929688 C 31.789062 -9.617188 28.21875 -1.019531 25.417969 -1.019531 C 23.570312 -1.019531 20.574219 -3.886719 16.5625 -17.519531 C 25.671875 -23.316406 29.75 -33.824219 28.921875 -40.832031 C 28.539062 -44.335938 26.945312 -46.757812 24.460938 -47.585938 C 23.761719 -47.839844 23.058594 -47.96875 22.359375 -48.03125 L 21.785156 -48.03125 C 20.128906 -48.03125 18.539062 -47.523438 16.945312 -46.503906 C 14.015625 -44.65625 11.65625 -41.34375 10.191406 -38.09375 C 10.445312 -40.386719 10.703125 -42.808594 10.894531 -45.226562 C 11.019531 -46.3125 10.445312 -47.265625 9.554688 -47.839844 L 8.34375 -48.539062 C 7.898438 -48.796875 7.390625 -48.796875 7.007812 -48.539062 C 6.5625 -48.351562 6.371094 -47.96875 6.304688 -47.523438 C 6.050781 -38.347656 3.566406 -11.339844 0.0625 -2.738281 C -0.0625 -2.355469 0 -1.976562 0.320312 -1.65625 C 0.507812 -1.464844 0.828125 -1.335938 1.082031 -1.335938 C 1.210938 -1.335938 1.402344 -1.335938 1.527344 -1.402344 C 2.484375 -1.847656 3.3125 -2.292969 3.886719 -2.867188 C 4.394531 -3.25 4.714844 -3.820312 4.90625 -4.460938 C 5.734375 -7.453125 7.835938 -17.773438 9.617188 -32.617188 L 9.617188 -32.742188 C 10.066406 -36.945312 13.121094 -42.933594 17.453125 -45.675781 C 18.984375 -46.695312 20.511719 -47.140625 22.039062 -47.074219 C 24.015625 -47.011719 25.542969 -44.71875 25.671875 -41.597656 C 25.800781 -38.667969 25.226562 -28.347656 12.484375 -19.238281 C 12.292969 -19.109375 12.230469 -18.917969 12.292969 -18.726562 L 12.613281 -17.453125 C 14.140625 -11.65625 16.691406 -1.976562 21.59375 0.0625 C 22.230469 0.320312 22.933594 0.445312 23.570312 0.445312 C 24.589844 0.445312 25.671875 0.128906 26.820312 -0.507812 C 26.882812 -0.507812 26.882812 -0.507812 26.945312 -0.574219 C 30.320312 -2.738281 33.445312 -11.464844 33.824219 -12.613281 C 33.890625 -12.867188 33.761719 -13.121094 33.507812 -13.1875 Z M 33.507812 -13.1875 "/></g></g></g><g fill="#8c52ff" fill-opacity="1"><g transform="translate(162.148752, 195.787541)"><g><path d="M 19.746094 -13.058594 C 19.554688 -13.1875 19.300781 -13.121094 19.109375 -12.929688 C 13.757812 -5.796875 10.511719 -2.929688 7.773438 -1.910156 L 7.707031 -1.910156 C 6.5625 -1.59375 5.542969 -1.847656 4.839844 -2.675781 C 3.441406 -4.269531 3.375 -7.582031 4.648438 -11.273438 C 5.925781 -11.53125 11.019531 -12.675781 13.3125 -16.945312 C 14.015625 -18.347656 14.140625 -19.492188 14.015625 -20.382812 C 14.015625 -20.574219 13.949219 -20.832031 13.886719 -21.023438 C 13.757812 -21.402344 13.632812 -21.660156 13.503906 -21.914062 C 12.804688 -23.058594 11.53125 -23.761719 10.257812 -23.761719 C 7.324219 -23.761719 3.121094 -20.832031 0 -12.804688 C -1.847656 -7.960938 -0.890625 -4.96875 0.253906 -3.3125 C 1.65625 -1.273438 3.757812 -0.507812 5.097656 -0.507812 C 6.050781 -0.507812 7.007812 -0.699219 7.960938 -1.019531 C 7.960938 -1.019531 8.027344 -1.019531 8.027344 -1.082031 C 11.339844 -2.230469 14.777344 -5.667969 19.875 -12.359375 C 20.003906 -12.613281 20.003906 -12.867188 19.746094 -13.058594 Z M 5.160156 -12.550781 C 7.835938 -18.984375 10.066406 -20.894531 11.464844 -21.339844 C 11.914062 -21.53125 12.292969 -21.46875 12.613281 -21.277344 L 12.996094 -20.765625 C 13.3125 -19.8125 13.121094 -18.601562 12.484375 -17.390625 C 10.636719 -14.015625 6.753906 -12.742188 5.03125 -12.359375 Z M 5.160156 -12.550781 "/></g></g></g><g fill="#8c52ff" fill-opacity="1"><g transform="translate(181.1295, 195.787541)"><g><path d="M 28.539062 -13.1875 C 28.347656 -13.3125 28.027344 -13.1875 27.902344 -12.996094 C 26.371094 -10.128906 22.296875 -3.757812 19.046875 -1.402344 C 19.046875 -1.335938 18.984375 -1.335938 18.984375 -1.335938 C 18.664062 -1.148438 18.21875 -0.957031 17.773438 -1.273438 C 17.261719 -1.65625 15.097656 -4.078125 17.964844 -17.519531 C 25.609375 -25.226562 34.273438 -40.769531 33.125 -47.011719 C 32.933594 -48.222656 32.296875 -49.050781 31.40625 -49.496094 C 30.066406 -50.007812 28.730469 -49.941406 27.265625 -49.242188 C 22.296875 -46.695312 17.328125 -36.691406 14.207031 -23.125 L 14.015625 -22.359375 C 13.632812 -22.996094 13.1875 -23.570312 12.550781 -23.953125 C 11.464844 -24.652344 10.128906 -24.714844 8.664062 -24.144531 C 5.160156 -22.867188 -0.128906 -17.453125 -0.320312 -9.875 C -0.382812 -6.6875 0.828125 -5.289062 1.910156 -4.648438 C 2.613281 -4.269531 3.441406 -4.078125 4.269531 -4.078125 C 5.351562 -4.078125 6.496094 -4.394531 7.324219 -4.90625 C 9.429688 -6.179688 10.828125 -8.027344 12.039062 -10.128906 C 11.722656 -5.859375 12.167969 -3.058594 13.3125 -1.402344 C 14.078125 -0.320312 15.160156 0.320312 16.5625 0.445312 C 16.625 0.507812 16.753906 0.507812 16.882812 0.507812 C 17.582031 0.507812 18.472656 0.191406 19.367188 -0.445312 C 19.429688 -0.507812 19.492188 -0.507812 19.492188 -0.574219 C 19.554688 -0.574219 19.554688 -0.574219 19.554688 -0.636719 C 21.023438 -1.65625 22.679688 -3.441406 24.460938 -5.925781 C 26.882812 -9.171875 28.730469 -12.484375 28.730469 -12.550781 C 28.855469 -12.742188 28.792969 -13.058594 28.539062 -13.1875 Z M 19.8125 -25.164062 C 24.335938 -41.914062 27.964844 -45.929688 29.75 -46.882812 C 30.320312 -47.203125 30.769531 -47.265625 31.214844 -47.074219 C 32.105469 -46.820312 32.234375 -45.417969 32.296875 -45.164062 C 31.789062 -39.050781 25.226562 -26.753906 18.347656 -19.300781 Z M 12.230469 -12.550781 C 10.828125 -9.746094 9.363281 -7.261719 6.878906 -5.734375 C 6.433594 -5.542969 5.796875 -5.414062 5.289062 -5.925781 C 4.203125 -6.945312 3.886719 -9.683594 5.542969 -13.695312 C 8.089844 -20.003906 12.167969 -21.722656 12.613281 -21.722656 C 13.1875 -21.722656 13.378906 -21.402344 13.503906 -21.210938 C 13.570312 -21.023438 13.632812 -20.832031 13.632812 -20.703125 C 12.996094 -17.582031 12.550781 -14.90625 12.230469 -12.550781 Z M 12.230469 -12.550781 "/></g></g></g><g fill="#8c52ff" fill-opacity="1"><g transform="translate(208.899985, 195.787541)"><g><path d="M 19.746094 -13.058594 C 19.554688 -13.1875 19.300781 -13.121094 19.109375 -12.929688 C 13.757812 -5.796875 10.511719 -2.929688 7.773438 -1.910156 L 7.707031 -1.910156 C 6.5625 -1.59375 5.542969 -1.847656 4.839844 -2.675781 C 3.441406 -4.269531 3.375 -7.582031 4.648438 -11.273438 C 5.925781 -11.53125 11.019531 -12.675781 13.3125 -16.945312 C 14.015625 -18.347656 14.140625 -19.492188 14.015625 -20.382812 C 14.015625 -20.574219 13.949219 -20.832031 13.886719 -21.023438 C 13.757812 -21.402344 13.632812 -21.660156 13.503906 -21.914062 C 12.804688 -23.058594 11.53125 -23.761719 10.257812 -23.761719 C 7.324219 -23.761719 3.121094 -20.832031 0 -12.804688 C -1.847656 -7.960938 -0.890625 -4.96875 0.253906 -3.3125 C 1.65625 -1.273438 3.757812 -0.507812 5.097656 -0.507812 C 6.050781 -0.507812 7.007812 -0.699219 7.960938 -1.019531 C 7.960938 -1.019531 8.027344 -1.019531 8.027344 -1.082031 C 11.339844 -2.230469 14.777344 -5.667969 19.875 -12.359375 C 20.003906 -12.613281 20.003906 -12.867188 19.746094 -13.058594 Z M 5.160156 -12.550781 C 7.835938 -18.984375 10.066406 -20.894531 11.464844 -21.339844 C 11.914062 -21.53125 12.292969 -21.46875 12.613281 -21.277344 L 12.996094 -20.765625 C 13.3125 -19.8125 13.121094 -18.601562 12.484375 -17.390625 C 10.636719 -14.015625 6.753906 -12.742188 5.03125 -12.359375 Z M 5.160156 -12.550781 "/></g></g></g><g fill="#1c2120" fill-opacity="1"><g transform="translate(160.75082, 164.922133)"><g><path d="M 14.023438 -9.273438 C 13.886719 -9.363281 13.707031 -9.316406 13.570312 -9.183594 C 9.769531 -4.117188 7.464844 -2.082031 5.519531 -1.355469 L 5.472656 -1.355469 C 4.660156 -1.128906 3.933594 -1.3125 3.4375 -1.898438 C 2.441406 -3.03125 2.398438 -5.382812 3.300781 -8.007812 C 4.207031 -8.1875 7.824219 -9 9.453125 -12.03125 C 9.949219 -13.027344 10.042969 -13.839844 9.949219 -14.472656 C 9.949219 -14.609375 9.90625 -14.792969 9.859375 -14.925781 C 9.769531 -15.199219 9.679688 -15.378906 9.589844 -15.558594 C 9.089844 -16.375 8.1875 -16.871094 7.28125 -16.871094 C 5.203125 -16.871094 2.214844 -14.792969 0 -9.089844 C -1.3125 -5.652344 -0.632812 -3.527344 0.179688 -2.351562 C 1.175781 -0.90625 2.667969 -0.363281 3.617188 -0.363281 C 4.296875 -0.363281 4.976562 -0.496094 5.652344 -0.722656 C 5.652344 -0.722656 5.699219 -0.722656 5.699219 -0.769531 C 8.050781 -1.582031 10.492188 -4.027344 14.113281 -8.773438 C 14.203125 -8.957031 14.203125 -9.136719 14.023438 -9.273438 Z M 3.664062 -8.910156 C 5.5625 -13.480469 7.148438 -14.835938 8.140625 -15.152344 C 8.457031 -15.289062 8.730469 -15.242188 8.957031 -15.109375 L 9.226562 -14.746094 C 9.453125 -14.066406 9.316406 -13.207031 8.867188 -12.347656 C 7.554688 -9.949219 4.792969 -9.046875 3.574219 -8.773438 Z M 3.664062 -8.910156 "/></g></g></g><g fill="#1c2120" fill-opacity="1"><g transform="translate(174.227153, 164.922133)"><g><path d="M 22.75 -9.363281 C 22.570312 -9.453125 22.390625 -9.363281 22.300781 -9.226562 C 20.941406 -6.875 19.992188 -5.609375 19.269531 -4.976562 C 19.269531 -4.976562 19.222656 -4.976562 19.222656 -4.929688 C 18.636719 -4.433594 18.273438 -4.34375 18.046875 -4.386719 C 17.460938 -4.476562 17.097656 -5.382812 16.917969 -6.105469 C 16.375 -8.367188 17.324219 -11.671875 17.957031 -13.839844 C 18.320312 -15.0625 18.5 -15.652344 18.453125 -15.96875 C 18.273438 -16.78125 17.460938 -18.046875 15.832031 -18.136719 C 14.609375 -18.230469 12.621094 -15.785156 12.03125 -15.0625 C 11.171875 -13.976562 10.492188 -12.847656 9.949219 -11.804688 C 10.085938 -12.574219 10.269531 -13.296875 10.402344 -13.929688 C 10.71875 -15.289062 10.992188 -16.328125 10.765625 -17.277344 C 10.628906 -17.820312 9.996094 -18.410156 9.273438 -18.636719 C 8.640625 -18.816406 8.050781 -18.679688 7.597656 -18.230469 C 5.789062 -16.464844 3.800781 -12.257812 2.667969 -8.773438 C 2.984375 -11.714844 3.664062 -14.339844 4.570312 -16.511719 C 4.886719 -17.234375 4.660156 -18.046875 4.027344 -18.5 L 3.390625 -18.953125 C 3.167969 -19.132812 2.894531 -19.179688 2.578125 -19.089844 C 2.308594 -18.996094 2.082031 -18.773438 1.988281 -18.5 C 0.769531 -14.925781 -0.496094 -7.871094 -0.40625 -2.667969 C -0.363281 -1.808594 0.226562 -1.039062 1.085938 -0.859375 C 1.175781 -0.8125 1.265625 -0.8125 1.3125 -0.8125 C 1.582031 -0.8125 1.808594 -0.90625 1.988281 -1.039062 C 2.214844 -1.265625 2.351562 -1.539062 2.351562 -1.898438 C 2.351562 -2.804688 2.351562 -3.753906 2.398438 -4.613281 C 2.578125 -7.507812 5.335938 -14.746094 7.824219 -17.503906 L 7.871094 -17.503906 C 7.914062 -17.59375 8.050781 -17.640625 8.097656 -17.59375 C 8.1875 -17.550781 8.324219 -17.234375 8.097656 -16.511719 C 7.691406 -15.289062 6.605469 -10.945312 6.511719 -7.78125 C 6.511719 -7.328125 6.695312 -6.875 7.011719 -6.511719 C 7.328125 -6.195312 7.78125 -6.015625 8.277344 -6.015625 C 8.640625 -5.96875 9 -6.152344 9.273438 -6.378906 C 9.5 -6.648438 9.632812 -6.964844 9.632812 -7.28125 C 9.589844 -7.914062 9.589844 -8.503906 9.632812 -9.089844 C 9.632812 -9.089844 9.679688 -9.136719 9.679688 -9.183594 C 10.269531 -12.257812 13.660156 -16.375 15.242188 -17.277344 L 15.289062 -17.324219 C 15.332031 -17.324219 15.425781 -17.371094 15.515625 -17.277344 C 15.695312 -17.097656 15.785156 -16.601562 15.425781 -15.695312 C 14.882812 -14.25 13.117188 -7.597656 14.339844 -4.839844 C 14.835938 -3.574219 15.742188 -3.210938 16.375 -3.121094 C 16.511719 -3.074219 16.644531 -3.074219 16.828125 -3.074219 C 17.820312 -3.074219 18.953125 -3.617188 19.722656 -4.476562 L 19.722656 -4.523438 C 20.625 -5.335938 21.667969 -6.785156 22.84375 -8.910156 C 22.933594 -9.046875 22.886719 -9.273438 22.75 -9.363281 Z M 22.75 -9.363281 "/></g></g></g><g fill="#8c52ff" fill-opacity="1"><g transform="translate(130.33479, 141.796409)"><g><path d="M 20.632812 -12.6875 L 20.632812 -19.007812 L 9.757812 -19.007812 L 9.757812 -25.28125 L 21.097656 -25.28125 L 21.097656 -31.601562 L 2.789062 -31.601562 L 2.789062 0 L 9.757812 0 L 9.757812 -12.6875 Z M 20.632812 -12.6875 "/></g></g></g><g fill="#8c52ff" fill-opacity="1"><g transform="translate(157.471818, 141.796409)"><g><path d="M 27.183594 -15.847656 C 27.183594 -10.96875 22.769531 -6.507812 17.890625 -6.507812 C 13.011719 -6.507812 8.597656 -10.96875 8.597656 -15.847656 C 8.597656 -20.726562 13.011719 -25.140625 17.890625 -25.140625 C 22.769531 -25.140625 27.183594 -20.726562 27.183594 -15.847656 Z M 34.15625 -15.800781 C 34.15625 -24.535156 26.628906 -32.066406 17.890625 -32.066406 C 9.15625 -32.066406 1.625 -24.535156 1.625 -15.800781 C 1.625 -7.0625 9.15625 0.464844 17.890625 0.464844 C 26.628906 0.464844 34.15625 -7.0625 34.15625 -15.800781 Z M 34.15625 -15.800781 "/></g></g></g><g fill="#8c52ff" fill-opacity="1"><g transform="translate(196.968782, 141.796409)"><g><path d="M 9.757812 -11.292969 L 9.804688 -11.292969 L 17.332031 0 L 26.164062 0 L 17.101562 -11.617188 C 21.097656 -12.59375 24.304688 -16.125 24.304688 -21.46875 C 24.304688 -27.464844 19.75 -31.601562 14.636719 -31.601562 L 2.789062 -31.601562 L 2.789062 0 L 9.757812 0 Z M 13.476562 -26.117188 C 15.519531 -26.117188 17.660156 -24.351562 17.660156 -21.46875 C 17.660156 -18.449219 15.519531 -16.777344 13.476562 -16.777344 L 9.757812 -16.777344 L 9.757812 -26.117188 Z M 13.476562 -26.117188 "/></g></g></g><g fill="#8c52ff" fill-opacity="1"><g transform="translate(226.289698, 141.796409)"><g><path d="M 25.605469 -10.734375 C 24.304688 -7.945312 21.144531 -6.042969 17.890625 -6.042969 C 12.78125 -6.042969 8.691406 -10.410156 8.691406 -15.800781 C 8.691406 -21.144531 12.78125 -25.558594 17.890625 -25.558594 C 21.097656 -25.558594 24.257812 -23.792969 25.558594 -20.957031 L 33.320312 -20.957031 C 31.183594 -27.417969 25.09375 -32.066406 17.890625 -32.066406 C 8.921875 -32.066406 1.625 -24.769531 1.625 -15.800781 C 1.625 -7.480469 7.851562 -0.605469 15.894531 0.371094 L 13.289062 6.085938 L 13.988281 5.996094 C 14.964844 5.855469 16.171875 5.53125 17.148438 5.714844 C 19.285156 6.132812 18.449219 9.199219 14.871094 8.644531 C 14.21875 8.550781 13.570312 8.363281 12.917969 8.132812 L 12.640625 8.039062 L 11.339844 10.640625 L 11.757812 10.828125 C 15.054688 12.082031 19.75 12.082031 21.097656 8.828125 C 22.074219 6.460938 21.144531 3.765625 19.191406 3.347656 C 18.632812 3.207031 18.125 3.207031 17.425781 3.347656 L 18.773438 0.464844 C 25.558594 0.09375 31.273438 -4.460938 33.367188 -10.734375 Z M 25.605469 -10.734375 "/></g></g></g><g fill="#8c52ff" fill-opacity="1"><g transform="translate(264.532074, 141.796409)"><g><path d="M 19.980469 -12.082031 L 11.988281 -12.082031 L 15.984375 -23.328125 Z M 31.785156 0 L 18.960938 -31.601562 L 13.058594 -31.601562 L 0.230469 0 L 7.714844 0 L 9.992188 -6.367188 L 22.027344 -6.367188 L 24.304688 0 Z M 31.785156 0 "/></g></g></g></svg>